# xmcd CD database file
#
# Track frame offsets:
#	150
#	20755
#	35267
#	52125
#	72815
#	92480
#	110275
#	123632
#
# Disc length: 1938 seconds
#
# Revision: 2
# Processed by: cddbd v1.5.1PL2 Copyright (c) Steve Scherf et al.
# Submitted via: CDex 1.50
#
DISCID=68079008
DTITLE=Wayne Shorter - Wayning Moments
DYEAR=1900
DGENRE=Jazz
TTITLE0=Black Orpheus
TTITLE1=Devil's Island
TTITLE2=Moon of Manakoora
TTITLE3=Dead End
TTITLE4=Wayning Moments
TTITLE5=Powder Keg
TTITLE6=All or Nothing at All
TTITLE7=Callaway Went That a Way
EXTD=
EXTT0=
EXTT1=
EXTT2=
EXTT3=
EXTT4=
EXTT5=
EXTT6=
EXTT7=
PLAYORDER=
